<svg width="113" height="144" viewBox="0 0 113 144" fill="none" xmlns="http://www.w3.org/2000/svg">
<g clip-path="url(#clip0_86_2)">
<path d="M10.7646 72.2362C12.496 69.2662 14.5288 65.6362 16.3966 62.1668L16.8344 61.3528L16.1106 60.7808C7.84962 54.2512 3.30002 45.4512 3.30002 36C3.30002 17.1966 21.5578 1.89999 44 1.89999C66.4422 1.89999 84.7 17.1966 84.7 36C84.7 54.8034 66.4422 70.1 44 70.1C39.2194 70.1 34.4542 69.3696 29.8408 67.933L29.4822 67.8208L29.1302 67.9528C22.6512 70.3596 15.9588 71.9084 10.7646 72.2362Z" fill="#FBFBFB"/>
<path d="M44 2.99999C65.835 2.99999 83.6 17.8038 83.6 36C83.6 54.1962 65.835 69 44 69C39.3294 69 34.6742 68.2872 30.1686 66.8836L29.4514 66.6592L28.7474 66.921C23.2012 68.9802 17.5098 70.4036 12.7754 70.9492C14.2516 68.373 15.8598 65.4778 17.3646 62.686L18.2402 61.0602L16.7926 59.9162C8.80001 53.6022 4.40001 45.108 4.40001 36C4.40001 17.8038 22.165 2.99999 44 2.99999ZM44 0.799988C20.9154 0.799988 2.20001 16.5586 2.20001 36C2.20001 46.1222 7.30401 55.2214 15.4286 61.6432C13.0834 65.997 10.6414 70.3112 8.80001 73.4C14.5134 73.4 22.3784 71.6334 29.513 68.9846C34.034 70.3926 38.8982 71.2 44 71.2C67.0846 71.2 85.8 55.4414 85.8 36C85.8 16.5586 67.0846 0.799988 44 0.799988Z" fill="black"/>
<path d="M102.235 140.236C100.504 137.266 98.4712 133.636 96.6034 130.167L96.1656 129.353L96.8894 128.781C105.15 122.251 109.7 113.451 109.7 104C109.7 85.1966 91.4422 69.9 69 69.9C46.5578 69.9 28.3 85.1966 28.3 104C28.3 122.803 46.5578 138.1 69 138.1C73.7806 138.1 78.5458 137.37 83.1592 135.933L83.5178 135.821L83.8698 135.953C90.3488 138.36 97.0412 139.908 102.235 140.236Z" fill="#FBFBFB"/>
<path d="M69 71C47.165 71 29.4 85.8038 29.4 104C29.4 122.196 47.165 137 69 137C73.6706 137 78.3258 136.287 82.8314 134.884L83.5486 134.659L84.2526 134.921C89.7988 136.98 95.4902 138.404 100.225 138.949C98.7484 136.373 97.1402 133.478 95.6354 130.686L94.7598 129.06L96.2074 127.916C104.2 121.602 108.6 113.108 108.6 104C108.6 85.8038 90.835 71 69 71ZM69 68.8C92.0846 68.8 110.8 84.5586 110.8 104C110.8 114.122 105.696 123.221 97.5714 129.643C99.9166 133.997 102.359 138.311 104.2 141.4C98.4866 141.4 90.6216 139.633 83.487 136.985C78.966 138.393 74.1018 139.2 69 139.2C45.9154 139.2 27.2 123.441 27.2 104C27.2 84.5586 45.9154 68.8 69 68.8Z" fill="black"/>
</g>
<defs>
<clipPath id="clip0_86_2">
<rect width="113" height="144" fill="white"/>
</clipPath>
</defs>
</svg>
