<svg xmlns="http://www.w3.org/2000/svg" xmlns:xlink="http://www.w3.org/1999/xlink" viewBox="0,0,256,256" width="50px" height="50px" fill-rule="nonzero"><g fill="#f4e4d2" fill-rule="nonzero" stroke="none" stroke-width="1" stroke-linecap="butt" stroke-linejoin="miter" stroke-miterlimit="10" stroke-dasharray="" stroke-dashoffset="0" font-family="none" font-weight="none" font-size="none" text-anchor="none" style="mix-blend-mode: normal"><g transform="scale(5.12,5.12)"><path d="M25,2c-10.239,0 -19.33895,6.87761 -22.12695,16.72461c-0.079,0.278 -0.032,0.57636 0.125,0.81836c0.158,0.242 0.41227,0.40336 0.69727,0.44336l13.20898,1.85742c0.418,0.059 0.80891,-0.17092 1.00391,-0.54492c1.098,-2.098 3.09833,-3.64877 5.48633,-4.13477c0.413,-0.084 0.74178,-0.3955 0.80078,-0.8125l1.85547,-13.20898c0.04,-0.287 -0.07758,-0.57788 -0.26758,-0.79687c-0.188,-0.219 -0.4942,-0.3457 -0.7832,-0.3457zM30.85156,2.84766c-0.13925,0.02125 -0.27403,0.07189 -0.39453,0.15039c-0.242,0.158 -0.40336,0.41227 -0.44336,0.69727l-1.85742,13.20898c-0.059,0.418 0.17092,0.80891 0.54492,1.00391c2.098,1.098 3.64877,3.09833 4.13477,5.48633c0.084,0.413 0.3955,0.74178 0.8125,0.80078l13.20898,1.85547c0.038,0.006 0.07723,0.00781 0.11523,0.00781c0.249,0 0.49164,-0.10844 0.68164,-0.27344c0.219,-0.189 0.3457,-0.49616 0.3457,-0.78516c0,-10.239 -6.87761,-19.33895 -16.72461,-22.12695c-0.1405,-0.0395 -0.28458,-0.04664 -0.42383,-0.02539zM2.92773,23.94336c-0.21291,0.02423 -0.41778,0.12899 -0.58203,0.27148c-0.219,0.189 -0.3457,0.49616 -0.3457,0.78516c0,10.239 6.87761,19.33895 16.72461,22.12695c0.09,0.025 0.18148,0.03711 0.27148,0.03711c0.192,0 0.38288,-0.05611 0.54688,-0.16211c0.242,-0.158 0.40336,-0.41226 0.44336,-0.69727l1.85742,-13.20898c0.059,-0.418 -0.17092,-0.80891 -0.54492,-1.00391c-2.099,-1.098 -3.64877,-3.09928 -4.13477,-5.48828c-0.084,-0.413 -0.3955,-0.73983 -0.8125,-0.79883l-13.20898,-1.85742c-0.07125,-0.01125 -0.14387,-0.01198 -0.21484,-0.00391zM33.0957,28.15625c-0.418,-0.059 -0.80891,0.17092 -1.00391,0.54492c-1.098,2.098 -3.09833,3.64877 -5.48633,4.13477c-0.413,0.084 -0.74178,0.3955 -0.80078,0.8125l-1.85547,13.20898c-0.04,0.287 0.07758,0.57787 0.26758,0.79688c0.188,0.219 0.4942,0.3457 0.7832,0.3457c10.239,0 19.33895,-6.87761 22.12695,-16.72461c0.079,-0.278 0.032,-0.57636 -0.125,-0.81836c-0.158,-0.242 -0.41227,-0.40336 -0.69727,-0.44336z"></path></g></g></svg>