<svg width="250" height="250" viewBox="0 0 250 250" fill="none" xmlns="http://www.w3.org/2000/svg">
<g clip-path="url(#clip0_26_21)">
<path d="M108.407 203.5C109.297 200.84 112.579 199.899 114.744 201.683L135.319 218.637C136.026 219.22 136.911 219.542 137.827 219.55L164.486 219.788C167.291 219.813 169.2 222.643 168.172 225.253L158.406 250.06C158.071 250.913 158.038 251.854 158.313 252.728L166.325 278.156C167.168 280.831 165.067 283.521 162.266 283.35L135.655 281.728C134.741 281.672 133.836 281.932 133.09 282.464L111.382 297.941C109.098 299.57 105.89 298.402 105.188 295.687L98.5073 269.877C98.2778 268.99 97.751 268.209 97.0148 267.664L75.5867 251.802C73.3319 250.132 73.4511 246.721 75.8168 245.213L98.2992 230.884C99.0715 230.392 99.6516 229.65 99.9424 228.781L108.407 203.5Z" fill="#F2AB26"/>
<path d="M108.407 -46.4998C109.297 -49.16 112.579 -50.1009 114.744 -48.3169L135.319 -31.3628C136.026 -30.7803 136.911 -30.4581 137.827 -30.4499L164.486 -30.2121C167.291 -30.187 169.2 -27.3573 168.172 -24.7469L158.406 0.0603065C158.071 0.912541 158.038 1.85411 158.313 2.72767L166.325 28.1558C167.168 30.8314 165.067 33.5211 162.266 33.3504L135.655 31.728C134.741 31.6723 133.836 31.932 133.09 32.4637L111.382 47.9413C109.098 49.5699 105.89 48.4025 105.188 45.6866L98.5073 19.8767C98.2778 18.99 97.751 18.2089 97.0148 17.664L75.5867 1.80157C73.3319 0.132452 73.4511 -3.27877 75.8168 -4.78654L98.2992 -19.1156C99.0715 -19.6078 99.6516 -20.3502 99.9424 -21.2188L108.407 -46.4998Z" fill="#F2AB26"/>
<path d="M-16.5932 78.5002C-15.7026 75.84 -12.4215 74.8991 -10.2565 76.6831L10.3187 93.6372C11.0255 94.2197 11.9109 94.5419 12.8267 94.5501L39.4861 94.7879C42.2913 94.813 44.2 97.6427 43.1724 100.253L33.4061 125.06C33.0706 125.913 33.0377 126.854 33.313 127.728L41.325 153.156C42.168 155.831 40.0666 158.521 37.2665 158.35L10.6554 156.728C9.74122 156.672 8.83558 156.932 8.08982 157.464L-13.6179 172.941C-15.9021 174.57 -19.1095 173.402 -19.8124 170.687L-26.4927 144.877C-26.7222 143.99 -27.249 143.209 -27.9852 142.664L-49.4133 126.802C-51.6681 125.132 -51.5489 121.721 -49.1832 120.213L-26.7008 105.884C-25.9285 105.392 -25.3484 104.65 -25.0576 103.781L-16.5932 78.5002Z" fill="#F2AB26"/>
<path d="M233.407 78.5002C234.297 75.84 237.579 74.8991 239.744 76.6831L260.319 93.6372C261.026 94.2197 261.911 94.5419 262.827 94.5501L289.486 94.7879C292.291 94.813 294.2 97.6427 293.172 100.253L283.406 125.06C283.071 125.913 283.038 126.854 283.313 127.728L291.325 153.156C292.168 155.831 290.067 158.521 287.266 158.35L260.655 156.728C259.741 156.672 258.836 156.932 258.09 157.464L236.382 172.941C234.098 174.57 230.89 173.402 230.188 170.687L223.507 144.877C223.278 143.99 222.751 143.209 222.015 142.664L200.587 126.802C198.332 125.132 198.451 121.721 200.817 120.213L223.299 105.884C224.072 105.392 224.652 104.65 224.942 103.781L233.407 78.5002Z" fill="#F2AB26"/>
</g>
<defs>
<clipPath id="clip0_26_21">
<rect width="250" height="250" fill="white"/>
</clipPath>
</defs>
</svg>
